Coordinates
version=1
nRows=43
nColumns=12
inDegrees=yes

Units are S.I. units (second, meters, Newtons, ...)
Angles are in degrees

endheader
time	SC_y	SC_z	SC_x	AC_y	AC_z	AC_x	GH_y	GH_z	GH_yy	EL_x	PS_y
       0.0              -51.43         0.6707          15.81          42.57         -15.42          16.93         -158.5           16.3          108.8          98.21          33.55
   0.01945              -51.43         0.6701          15.82          42.58         -15.42          16.93         -158.5           16.3          108.8          98.21          33.55
   0.03891              -51.43         0.6695          15.83          42.58         -15.42          16.92         -158.4           16.3          108.7          98.21          33.55
   0.05836              -51.43         0.6689          15.85          42.58         -15.42          16.92         -158.3          16.31          108.7           98.2          33.55
   0.07781              -51.43         0.6682          15.86          42.58         -15.42          16.92         -158.3          16.31          108.7           98.2          33.55
   0.09727              -51.42         0.6675          15.87          42.59         -15.42          16.91         -158.2          16.31          108.6           98.2          33.54
    0.1167              -51.42         0.6667          15.88          42.59         -15.42          16.91         -158.2          16.32          108.6           98.2          33.54
    0.1362              -51.42         0.6659           15.9          42.59         -15.42           16.9         -158.1          16.32          108.5           98.2          33.54
    0.1556              -51.42          0.665          15.91           42.6         -15.42           16.9         -158.0          16.33          108.5          98.19          33.54
    0.1751              -51.42          0.664          15.93           42.6         -15.42          16.89         -157.9          16.33          108.4          98.19          33.54
    0.1945              -51.42          0.663          15.95          42.61         -15.43          16.89         -157.9          16.34          108.4          98.19          33.54
     0.214              -51.41         0.6619          15.97          42.61         -15.43          16.88         -157.8          16.34          108.3          98.18          33.53
    0.2334              -51.41         0.6607          15.99          42.62         -15.43          16.88         -157.7          16.35          108.3          98.18          33.53
    0.2529              -51.41         0.6594          16.01          42.62         -15.43          16.87         -157.5          16.36          108.2          98.18          33.53
    0.2723              -51.41          0.658          16.04          42.63         -15.43          16.86         -157.4          16.36          108.1          98.17          33.53
    0.2918               -51.4         0.6565          16.06          42.64         -15.43          16.86         -157.3          16.37          108.0          98.17          33.52
    0.3113               -51.4         0.6549          16.09          42.64         -15.43          16.85         -157.2          16.38          107.9          98.16          33.52
    0.3307               -51.4         0.6531          16.12          42.65         -15.44          16.84         -157.0          16.39          107.8          98.16          33.52
    0.3502              -51.39         0.6511          16.16          42.66         -15.44          16.83         -156.8           16.4          107.7          98.15          33.51
    0.3696              -51.39          0.649           16.2          42.67         -15.44          16.82         -156.7          16.41          107.6          98.15          33.51
    0.3891              -51.38         0.6466          16.24          42.68         -15.44          16.81         -156.5          16.42          107.5          98.14          33.51
    0.4085              -51.38         0.6441          16.28          42.69         -15.44           16.8         -156.3          16.44          107.4          98.13           33.5
     0.428              -51.37         0.6412          16.33           42.7         -15.45          16.78         -156.0          16.45          107.2          98.12           33.5
    0.4474              -51.36          0.638          16.39          42.72         -15.45          16.77         -155.7          16.47          107.0          98.11          33.49
    0.4669              -51.36         0.6345          16.45          42.73         -15.45          16.75         -155.4          16.49          106.8           98.1          33.49
    0.4863              -51.35         0.6306          16.52          42.75         -15.46          16.73         -155.1          16.51          106.6          98.09          33.48
    0.5058              -51.34         0.6262           16.6          42.77         -15.46          16.71         -154.7          16.53          106.4          98.08          33.47
    0.5252              -51.33         0.6213          16.68          42.79         -15.47          16.68         -154.3          16.56          106.1          98.06          33.46
    0.5447              -51.32         0.6157          16.78          42.82         -15.47          16.65         -153.9          16.58          105.8          98.05          33.45
    0.5642              -51.31         0.6094          16.89          42.85         -15.48          16.62         -153.3          16.62          105.5          98.03          33.44
    0.5836              -51.29         0.6021          17.02          42.88         -15.49          16.59         -152.7          16.66          105.1          98.01          33.43
    0.6031              -51.27         0.5938          17.17          42.92          -15.5          16.54         -152.0           16.7          104.7          97.98          33.41
    0.6225              -51.26         0.5842          17.34          42.96         -15.51           16.5         -151.2          16.75          104.1          97.96           33.4
     0.642              -51.23         0.5731          17.53          43.01         -15.52          16.44         -150.3          16.81          103.5          97.92          33.38
    0.6614              -51.21         0.5601          17.76          43.07         -15.53          16.38         -149.2          16.87          102.8          97.88          33.35
    0.6809              -51.18         0.5447          18.03          43.14         -15.55           16.3         -147.9          16.95          102.0          97.84          33.32
    0.7003              -51.14         0.5264          18.36          43.22         -15.57          16.21         -146.3          17.05          101.0          97.79          33.29
    0.7198              -51.09         0.5046          18.74          43.32         -15.59           16.1         -144.5          17.16          99.83          97.72          33.25
    0.7392              -51.04         0.4781          19.21          43.43         -15.62          15.97         -142.2           17.3          98.41          97.64          33.21
    0.7587              -50.97         0.4458          19.78          43.58         -15.65          15.81         -139.5          17.47          96.66          97.55          33.15
    0.7781              -50.89         0.4058          20.48          43.76         -15.69          15.61         -136.1          17.68          94.51          97.43          33.08
    0.7976              -50.79         0.3561          21.36          43.98         -15.74          15.36         -131.9          17.94          91.82          97.28          32.99
     0.817              -50.67         0.2934          22.46          44.26         -15.81          15.05         -126.7          18.26          88.44           97.1          32.88
